<svg width="41" height="55" viewBox="0 0 41 55" fill="none" xmlns="http://www.w3.org/2000/svg">
<path d="M24.4504 2.79472L24.4502 2.79567C24.5567 2.81545 24.6617 2.84224 24.7646 2.87579L24.7658 2.87504C24.7671 2.8754 24.7681 2.87645 24.7694 2.87682C24.7712 2.87741 24.7733 2.87746 24.7751 2.87806L24.774 2.87881C24.9049 2.91819 25.025 2.9913 25.1161 3.09383L25.1799 3.17759C25.2358 3.2646 25.2701 3.36433 25.2784 3.46974L25.2794 3.46995C25.2948 3.65006 25.2943 3.83057 25.2775 4.00911L25.2551 4.18613L25.2542 4.19492L25.0721 5.07675C25.0081 5.36926 24.9427 5.66002 24.8804 5.94751L24.8705 5.99333L25.0356 6.0291L25.1356 6.05675C25.3652 6.13223 25.569 6.27528 25.709 6.46778L25.7645 6.55275C25.8838 6.75634 25.9268 6.99334 25.8758 7.22436L25.7406 7.85755C25.6945 8.07038 25.6463 8.28406 25.5942 8.49631L25.5932 8.50108C25.5522 8.65579 25.4829 8.80138 25.3888 8.93243L25.3871 8.93106C25.314 9.04109 25.2148 9.12896 25.0978 9.18713L24.9711 9.23663C24.8038 9.28758 24.6231 9.2846 24.4552 9.23374L24.455 9.2347C24.2909 9.19491 24.1279 9.16239 23.9558 9.12654L22.4879 15.901C23.4551 16.5292 24.2503 17.2954 24.9655 18.1125L25.278 18.478L25.2802 18.4815L25.6327 18.9345C26.4269 20.004 27.0415 21.1657 27.4549 22.381L27.5379 22.6438C27.6579 23.0827 27.6927 23.5209 27.7013 23.9462L27.703 24.4502L27.7022 24.454L27.6841 24.8468C27.6553 25.2371 27.5963 25.6239 27.5071 26.0045L22.3353 49.8735C22.2798 50.1041 22.1353 50.2995 21.9364 50.4325L21.9371 50.4337C21.3931 50.8161 20.7341 51.0494 20.0355 51.1118L20.0348 51.1107C18.9306 51.2313 17.8103 51.2592 16.6883 51.1939L16.6891 51.1951C14.8867 51.1008 13.0865 50.8961 11.3019 50.5834L11.299 50.5828C10.515 50.4375 9.73966 50.2473 8.97861 50.012L8.97882 50.0111C7.94309 49.7029 6.91523 49.3662 5.89757 49.0087L5.89778 49.0078C4.56071 48.5551 3.27747 47.9728 2.0734 47.2708L2.07074 47.2692C1.82585 47.1224 1.59066 46.9626 1.36446 46.7935L1.3618 46.7919C0.96279 46.486 0.64351 46.1027 0.432325 45.6722L0.429541 45.6666C0.376998 45.5521 0.346644 45.4298 0.341834 45.3059L0.345939 45.1808L0.346225 45.1749C0.366312 45.0135 0.398438 44.8538 0.440829 44.6968L5.53452 21.1886L5.61044 20.8843C5.79996 20.1762 6.07492 19.4919 6.43051 18.8427L6.4325 18.8382L6.54034 18.6587C6.76285 18.3043 7.03063 17.9758 7.33902 17.6796L7.49745 17.5341C8.83787 16.2604 10.4821 15.2668 12.3223 14.6166L12.8386 14.4477C13.3053 14.3083 13.7856 14.2032 14.2747 14.1284L15.7438 7.34819L15.2933 7.25058C15.0239 7.19219 14.7888 7.07835 14.6378 6.88172C14.5015 6.70418 14.4573 6.4905 14.4816 6.26533L14.4966 6.16865C14.5845 5.7066 14.6875 5.24838 14.7944 4.79429L14.7954 4.78952L14.8229 4.69955C14.899 4.49508 15.0478 4.32545 15.2402 4.21242L15.3238 4.16759C15.5243 4.07281 15.7535 4.04042 15.9784 4.0706L15.9824 4.07047L16.2114 4.1201C16.2133 4.11229 16.2158 4.10451 16.2176 4.09645C16.3426 3.51964 16.461 2.92822 16.6028 2.34634L16.606 2.33605L16.6599 2.16586C16.7188 1.9979 16.7923 1.83485 16.8786 1.67766L16.8795 1.67787C16.9481 1.54316 17.062 1.43977 17.198 1.37917L17.3051 1.34142C17.4119 1.31282 17.5243 1.31004 17.6337 1.32867L17.6341 1.32676C17.733 1.3408 17.8313 1.36011 17.9287 1.38261L17.9289 1.38166L24.4504 2.79472ZM15.728 14.6431C15.6781 14.8732 15.5948 15.0769 15.4229 15.2255C15.2541 15.3713 15.0348 15.4334 14.7866 15.4643L14.7859 15.4632C14.1187 15.5517 13.4711 15.7104 12.8562 15.9344L12.8539 15.9358C11.3286 16.478 9.96013 17.2853 8.82529 18.3094L8.82455 18.3083C8.43155 18.6658 8.0736 18.9853 7.84674 19.3854L7.84475 19.39C7.46514 20.0298 7.18713 20.716 7.01895 21.4303C6.04827 25.9323 5.07293 30.4336 4.09294 34.9343L1.8948 45.0468C1.87279 45.1488 1.87523 45.225 1.89214 45.2851C1.90452 45.3288 1.92766 45.3737 1.96849 45.4215L2.01578 45.4707L2.01919 45.4735L2.17927 45.6201C2.34365 45.7635 2.51948 45.8968 2.70539 46.0188L2.70444 46.0186C3.63727 46.5945 4.63833 47.0751 5.68648 47.4512L5.68839 47.4516L6.40486 47.7097C7.12308 47.9622 7.8475 48.2015 8.57405 48.4435L8.57596 48.444L9.03116 48.5935C10.0968 48.9309 11.1894 49.1849 12.296 49.3529L13.4249 49.5106C14.5549 49.6537 15.6888 49.7552 16.8232 49.8153L16.8251 49.8157L17.2008 49.8341C17.9522 49.8621 18.7014 49.839 19.4418 49.7661L19.8114 49.7253C20.077 49.686 20.3368 49.6259 20.5867 49.5456L20.5889 49.545L20.6725 49.5142C20.748 49.4812 20.8013 49.4415 20.8406 49.3977C20.8933 49.3391 20.935 49.2568 20.9617 49.1342L23.4875 37.44C24.3319 33.543 25.1786 29.6467 26.0283 25.751L26.0994 25.3857C26.1406 25.1408 26.1694 24.8937 26.1869 24.6453L26.2047 24.2724C26.2199 23.6365 26.1465 23.023 25.9126 22.4295L25.8025 22.1768C25.617 21.7907 25.4687 21.4339 25.2737 21.08L25.2735 21.081C24.3409 19.3969 23.1036 17.9429 21.3564 16.8439L21.344 16.8362L21.3329 16.8278C21.2566 16.7667 21.188 16.6971 21.1289 16.6207L21.1291 16.6198C21.0066 16.486 20.9412 16.3401 20.9204 16.1858C20.8998 16.0322 20.9242 15.8841 20.9519 15.759C21.3647 13.8753 21.7727 11.9902 22.1772 10.1041C21.6048 10.3937 20.9379 10.5159 20.2655 10.4553L20.2556 10.4551C19.8371 10.4008 19.4215 10.3214 19.012 10.2177L19.0123 10.2167C18.1475 10.0274 17.4729 9.58957 16.9584 8.96432L15.728 14.6431ZM18.0488 8.00851C18.1215 8.12255 18.2083 8.23145 18.3107 8.33104L18.4875 8.48327C18.673 8.62466 18.8871 8.73618 19.119 8.81095C19.4687 8.90943 19.8243 8.98853 20.1829 9.04746L20.1838 9.04767L20.4008 9.0747C20.8436 9.10649 21.2347 8.99506 21.5875 8.77225L18.0488 8.00851ZM16.0832 5.99384C16.1487 6.00967 16.2269 6.02853 16.316 6.04928C16.5711 6.10865 16.9158 6.187 17.3199 6.27679C18.1283 6.45643 19.1731 6.68348 20.2121 6.90647C21.2513 7.12947 22.2845 7.34816 23.0699 7.51069C23.4626 7.59196 23.7931 7.65935 24.0308 7.70591C24.0937 7.71822 24.15 7.7281 24.1989 7.73733L24.2942 7.29734L16.1817 5.53954L16.0832 5.99384ZM17.7096 4.42772L23.3731 5.65488L23.7166 4.06959L18.0531 2.84244L17.7096 4.42772Z" fill="white" stroke="white" stroke-width="0.5"/>
<path d="M25.883 29.9632C18.4879 26.3145 9.44497 25.5488 5.84788 25.6221L3.4126 36.8613C9.86946 35.3954 19.4597 39.1446 23.4477 41.2024L25.883 29.9632Z" stroke="white" stroke-width="0.5"/>
<path d="M9.56466 33.7495L8.8509 33.731L7.42927 29.4087L8.11504 29.4265L9.2677 33.0485L10.6272 29.4915L11.264 29.508L9.56466 33.7495Z" fill="white"/>
<path d="M12.3091 29.2926C12.3271 29.1397 12.6153 28.9057 12.7474 28.9212C12.8725 28.9358 13.1556 29.1664 13.1368 29.3263C13.1189 29.4792 12.8245 29.7055 12.6994 29.6908C12.5673 29.6753 12.2912 29.4456 12.3091 29.2926ZM12.2841 30.3469L12.8934 30.3197L12.5166 33.5317L11.9187 33.4615L12.2841 30.3469Z" fill="white"/>
<path d="M15.9509 33.3968L15.9531 33.8046C15.7043 33.8679 15.2704 33.8934 14.9138 33.8203C14.0566 33.6448 13.626 32.9564 13.8254 31.9826C14.0403 30.9334 14.8252 30.4153 15.6756 30.5895C16.0664 30.6695 16.3624 30.7945 16.4841 30.898L16.2871 31.3364C16.1092 31.2285 15.838 31.0872 15.5651 31.0242C15.0494 30.9257 14.6143 31.201 14.45 32.0033C14.2814 32.8262 14.6253 33.2754 15.1602 33.3849C15.4482 33.4439 15.7517 33.4275 15.9509 33.3968Z" fill="white"/>
<path d="M18.2989 31.9535C18.0848 31.8876 17.793 31.9076 17.5367 31.9313L16.7892 34.3598L16.2138 34.1827L17.61 29.6468L18.2142 29.7302L17.6479 31.57C17.9696 31.5006 18.3962 31.4708 18.6839 31.5593C19.1455 31.7014 19.5227 32.1178 19.3374 32.7199L18.6558 34.9344L18.0804 34.7573L18.692 32.7703C18.8156 32.3689 18.6602 32.0647 18.2989 31.9535Z" fill="white"/>
<path d="M21.2944 33.3179C20.9077 33.154 20.6056 33.2389 20.3008 33.7787L21.6091 34.3332C21.8222 33.8305 21.7133 33.4955 21.2944 33.3179ZM21.4294 36.2642C21.0627 36.2684 20.6543 36.2094 20.2805 36.0509C19.5264 35.7313 19.1155 35.0326 19.5444 34.0207C19.9787 32.996 20.7825 32.66 21.5559 32.9878C22.2585 33.2855 22.4163 33.8998 22.1458 34.5379C22.0912 34.6668 22.011 34.8381 21.9745 34.9062L20.1312 34.125L20.1121 34.1701C19.7597 35.0015 20.1182 35.4652 20.5887 35.6646C20.8787 35.7875 21.1777 35.8534 21.4884 35.8558L21.4294 36.2642Z" fill="white"/>
<path d="M33.7998 15.1592C33.9638 14.8782 34.3812 14.9686 34.4143 15.2923L34.6075 17.1923C34.6501 17.61 34.7876 18.0109 35.009 18.3632C35.2304 18.7155 35.5296 19.0096 35.883 19.2222L37.4891 20.1889C37.7629 20.3537 37.6704 20.7807 37.353 20.8175L35.4898 21.0325C35.0802 21.0799 34.6861 21.224 34.3389 21.4533C33.9916 21.6826 33.7007 21.9908 33.4892 22.3535L32.527 24.0021C32.4915 24.0637 32.4378 24.1125 32.3738 24.1414C32.3098 24.1703 32.2386 24.1779 32.1705 24.1632C32.1023 24.1484 32.0407 24.112 31.9944 24.0592C31.9481 24.0064 31.9194 23.9398 31.9125 23.869L31.7193 21.969C31.6767 21.5514 31.5394 21.1506 31.3182 20.7983C31.0969 20.446 30.7979 20.1519 30.4447 19.9393L28.8377 18.9724C28.7776 18.9366 28.7304 18.8823 28.7027 18.8172C28.6749 18.7521 28.6681 18.6796 28.6832 18.6099C28.6983 18.5402 28.7345 18.477 28.7867 18.4292C28.8389 18.3814 28.9044 18.3515 28.9738 18.3438L30.837 18.1288C31.2465 18.0815 31.6405 17.9375 31.9877 17.7084C32.3349 17.4793 32.6258 17.1712 32.8374 16.8087L33.7998 15.1592ZM31.3516 9.73746C31.3731 9.70057 31.4053 9.6714 31.4437 9.6541C31.4822 9.63681 31.5249 9.63226 31.5657 9.64112C31.6066 9.64997 31.6436 9.67177 31.6714 9.70343C31.6992 9.73508 31.7165 9.77497 31.7207 9.81743L31.8367 10.9572C31.8888 11.4654 32.1719 11.9162 32.6016 12.1753L33.5656 12.7554C33.6016 12.7769 33.6299 12.8095 33.6464 12.8486C33.663 12.8877 33.6671 12.9312 33.658 12.973C33.649 13.0148 33.6273 13.0527 33.596 13.0814C33.5647 13.1101 33.5255 13.1281 33.4838 13.1329L32.3661 13.2619C32.1203 13.29 31.8838 13.3763 31.6753 13.5138C31.4669 13.6514 31.2924 13.8364 31.1657 14.0541L30.5883 15.0437C30.5669 15.0806 30.5346 15.1097 30.4962 15.127C30.4578 15.1443 30.4151 15.1489 30.3742 15.14C30.3334 15.1312 30.2964 15.1094 30.2686 15.0777C30.2408 15.0461 30.2235 15.0062 30.2192 14.9637L30.1033 13.8239C30.078 13.5732 29.9957 13.3326 29.8629 13.1211C29.7301 12.9097 29.5505 12.7332 29.3384 12.6059L28.3743 12.0258C28.3384 12.0042 28.3101 11.9716 28.2935 11.9325C28.2769 11.8935 28.2729 11.8499 28.2819 11.8081C28.291 11.7663 28.3127 11.7284 28.344 11.6997C28.3752 11.671 28.4145 11.653 28.4561 11.6483L29.5738 11.5192C29.8197 11.4911 30.0562 11.4048 30.2646 11.2673C30.473 11.1298 30.6475 10.9448 30.7743 10.727L31.3516 9.73746ZM37.8922 10.1484C37.9067 10.1242 37.9282 10.1052 37.9536 10.0939C37.9791 10.0827 38.0073 10.0798 38.0343 10.0856C38.0613 10.0915 38.0857 10.1058 38.1042 10.1266C38.1228 10.1473 38.1344 10.1736 38.1376 10.2016L38.2151 10.9608C38.2494 11.3002 38.4384 11.6011 38.7255 11.7736L39.3676 12.1602C39.3911 12.1748 39.4096 12.1965 39.4204 12.2224C39.4311 12.2483 39.4337 12.277 39.4277 12.3046C39.4217 12.3323 39.4075 12.3574 39.387 12.3765C39.3664 12.3956 39.3407 12.4077 39.3132 12.4112L38.5686 12.4974C38.4047 12.5166 38.247 12.5743 38.108 12.666C37.969 12.7578 37.8525 12.881 37.7676 13.026L37.3828 13.6851C37.3683 13.7093 37.3469 13.7283 37.3214 13.7396C37.2959 13.7508 37.2677 13.7537 37.2407 13.7479C37.2137 13.742 37.1893 13.7277 37.1708 13.7069C37.1522 13.6862 37.1406 13.6599 37.1374 13.6319L37.0599 12.8727C37.0427 12.7055 36.9876 12.5451 36.899 12.4041C36.8105 12.263 36.6908 12.1452 36.5495 12.0599L35.9083 11.6735C35.8848 11.6589 35.8663 11.6372 35.8556 11.6113C35.8448 11.5854 35.8422 11.5567 35.8482 11.529C35.8542 11.5014 35.8684 11.4763 35.8889 11.4572C35.9095 11.4381 35.9353 11.426 35.9627 11.4224L36.7073 11.3363C37.04 11.2981 37.3366 11.1024 37.5083 10.8077L37.8922 10.1484Z" fill="white"/>
</svg>
